<svg xmlns="http://www.w3.org/2000/svg" width="256" height="256"><path fill="#1976D2" fill-opacity=".016" fill-rule="evenodd" d="M0 128.004v128.004l128.25-.254 128.25-.254.254-127.75L257.008 0H0zm.485.496c0 70.4.119 99.053.265 63.672s.146-92.98 0-128S.485 58.1.485 128.5"/><path fill="#1976D2" fill-opacity=".267" fill-rule="evenodd" d="M104.736 2.602c-2.62 1.316-6.722 4.436-9.116 6.934-4.753 4.961-9.886 8.446-19.12 12.981-6.824 3.352-18.544 10.583-23 14.19-9.011 7.296-11.349 9.582-18.463 18.052-7.494 8.922-15.042 20.649-18.554 28.827-3.776 8.793-7.495 20.661-8.107 25.873C8.018 112.507 7.337 115 6.862 115c-1.124 0-1.127 37.306-.003 38.55.472.522 1.391 4.302 2.042 8.398.651 4.097 1.552 7.922 2.003 8.5s1.14 2.402 1.531 4.052c1.2 5.062 9.585 21.588 14.965 29.493 6.564 9.644 16.141 19.802 25.6 27.155 4.125 3.206 7.956 6.203 8.514 6.66 6.008 4.919 25.767 13.557 36.986 16.169 11.679 2.72 46.399 2.792 58.5.122 29.464-6.5 57.463-26.287 74.43-52.599 8.133-12.613 11.175-19.695 17.641-41.071 1.266-4.184 1.202-50.05-.072-52.431-.551-1.029-1.486-5.358-2.079-9.619-1.014-7.29-5.388-18.314-7.877-19.852-.551-.341-2.629-3.411-4.619-6.823-5.855-10.041-9.426-14.632-18.424-23.685-19.175-19.292-38.669-29.91-64.313-35.03-3.1-.619-5.85-1.998-7.726-3.874-1.602-1.603-5.062-3.891-7.687-5.086s-5.555-2.59-6.51-3.101c-.955-.51-5.905-.88-11-.822-7.638.087-10.1.525-14.028 2.496m99.312 92.158c-3.272 2.65-3.817 9.006-1.071 12.49 1.824 2.313 2.926 2.75 6.941 2.75 6.208 0 8.582-2.405 8.582-8.693 0-3.506-.515-4.901-2.361-6.395-2.992-2.423-9.191-2.501-12.091-.152m-51.477 59.867c-1.417 3.095-4.659 8.545-7.203 12.111-3.651 5.116-4.336 6.668-3.248 7.358.759.48 1.83.855 2.38.833 1.673-.067 5.575-5.667 10.163-14.583 3.791-7.368 4.171-8.655 2.919-9.907-.792-.791-1.663-1.439-1.937-1.439s-1.658 2.532-3.074 5.627m-32.492 72.956c.048 1.165.285 1.402.604.605.289-.722.253-1.585-.079-1.917s-.568.258-.525 1.312m-12 9c.048 1.165.285 1.402.604.605.289-.722.253-1.585-.079-1.917s-.568.258-.525 1.312M108 254.094c0 .498.9.906 2 .906s2-.173 2-.383-.9-.619-2-.907c-1.1-.287-2-.115-2 .384"/><path fill="#1976D2" fill-opacity=".152" fill-rule="evenodd" d="M110 1c0 .55-.787 1.002-1.75 1.004-2.727.006-8.308 3.689-13.357 8.817-4.712 4.785-12.119 9.742-21.893 14.65-6.55 3.289-18.228 10.894-19.991 13.018-1.047 1.262-.564 2.177 2.954 5.591 2.314 2.246 4.844 5.607 5.622 7.469 2.909 6.963 2.08 9.896-8.93 31.578-14.757 29.061-18.687 42.402-18.618 63.211.04 12.298.796 16.643 6.989 40.162 3.517 13.358 4.256 17.816 4.477 27 .18 7.458.625 10.92 1.381 10.75.614-.138 1.116.175 1.116.695s2.588 3.01 5.75 5.534 7.002 5.704 8.531 7.068c5.582 4.975 29.182 14.949 40.319 17.038 4.571.857 5.365-.288 5.385-7.77.03-11.343-3.459-22.972-14.435-48.097-5.62-12.866-8.77-23.973-10.044-35.41l-.689-6.191 3.342 2.945c1.837 1.619 5.778 4.405 8.757 6.191 6.127 3.673 6.047 3.553 9.089 13.747 1.23 4.125 5.098 14.388 8.594 22.807C121.636 224.57 123 229.496 123 240.362c0 5.033-.437 10.676-.972 12.539l-.971 3.388 14.721-.563c12.945-.495 16.905-1.087 23.222-3.467.825-.311 1.95-.653 2.5-.76s1.225-.294 1.5-.416c.275-.121 1.673-.377 3.106-.568 6.254-.834 24.569-10.324 35.394-18.338 7.341-5.436 23.5-21.757 23.5-23.737 0-.792.386-1.44.858-1.44 2.035 0 14.721-22.087 13.429-23.38-.341-.341-.095-.62.546-.62.642 0 1.17-.562 1.173-1.25s.676-2.534 1.495-4.104 1.239-3.257.935-3.75-.149-.896.346-.896c.794 0 3.107-7.96 3.923-13.5 1.255-8.517 1.514-12.692 1.549-25 .036-12.796-.253-17.369-1.641-26-.266-1.65-.793-5.69-1.173-8.977-1.051-9.119-2.791-12.963-12.004-26.523-13.103-19.287-12.745-19-23.705-19-8.217 0-16.365 2.258-26.198 7.259-4.099 2.085-7.58 3.096-10.858 3.155-4.327.077-5.173-.292-8.177-3.57-4.983-5.435-6.858-14.108-4.436-20.529.583-1.548 2.579-5.065 4.434-7.815 2.089-3.097 3.493-6.513 3.688-8.973.373-4.686-.644-5.388-11.684-8.073-8.935-2.173-9.969-2.657-16-7.483-2.75-2.201-6.8-4.52-9-5.155-2.2-.634-4.428-1.527-4.95-1.985C126.178-.369 110-.214 110 1m3.381 33.631c-.815 1.951-1.964 7.219-2.553 11.708-1.351 10.292-1.437 10.574-3.45 11.346-2.104.808-4.378-2.14-4.378-5.676 0-3.18-1.672-5.009-4.578-5.009-3.671 0-4.843 2.389-3.56 7.257 1.17 4.444 1.554 7.814 1.294 11.352-.184 2.49-7.94 11.643-9.204 10.861-.479-.296-2.7 1.114-4.935 3.134-3.087 2.788-3.922 4.18-3.474 5.784 1.009 3.607 8.344 9.502 13.835 11.118 10.698 3.15 23.894 8.818 28.224 12.124l4.501 3.435-.645-3.782c-.355-2.081-1.503-5.002-2.551-6.493-2.484-3.529-2.478-8.963.011-11.216 1.824-1.651 2.278-1.635 9.205.326 6.631 1.876 7.497 1.924 9.626.529 3.298-2.161 4.251-5.395 4.251-14.427 0-6.981.225-7.939 1.994-8.5 5.792-1.838 6.375-6.46 1.975-15.662-2.602-5.443-3.005-7.36-2.848-13.552l.184-7.212-15.721-.496-15.721-.496zm92.934 57.857C203.18 93.828 200 98.366 200 101.5c0 3.242 3.213 7.691 6.566 9.092 2.961 1.237 3.898 1.241 6.803.027 6.953-2.905 8.8-10.285 3.881-15.507-3.386-3.594-6.767-4.405-10.935-2.624m-14.886 44.517c-1.061 1.103-5.529 5.493-9.929 9.755-4.593 4.449-8.81 9.557-9.902 11.994-1.046 2.335-2.224 4.246-2.617 4.246s-1.832-1.687-3.198-3.75-4.271-5.725-6.456-8.138l-3.974-4.388-3.743 7.882c-4.07 8.571-9.967 16.991-15.556 22.215-3.929 3.673-13.244 9.546-16.909 10.663-2.256.687-2.165.852 2.147 3.919 2.476 1.76 6.461 4.044 8.855 5.076 2.394 1.031 6.241 2.695 8.548 3.698s4.868 1.823 5.691 1.823 1.779.459 2.126 1.019c.942 1.524 10.155 5.99 15.844 7.679 7.149 2.123 22.215.951 25.394-1.975 1.238-1.14 2.25-2.652 2.25-3.362 0-.709 2.644-6.593 5.875-13.075 6.212-12.464 9.721-21.317 12.996-32.786 1.719-6.023 4.129-17.429 4.129-19.546 0-.373-2.983-.983-6.629-1.357s-7.899-1.336-9.45-2.138c-3.51-1.815-3.191-1.846-5.492.546"/><path fill="#1976D2" fill-opacity=".59" fill-rule="evenodd" d="M112.45.831c-.523.458-2.839 1.369-5.148 2.025-2.691.765-6.688 3.429-11.132 7.419-3.814 3.424-8.796 7.498-11.072 9.054-4.556 3.115-7.705 8.359-8.679 14.453-.878 5.492 1.569 13.338 8.577 27.495l5.83 11.777 2.02-2.838c3.122-4.385 3.47-7.458 1.598-14.129-1.64-5.846-1.636-6.217.074-8.107.985-1.089 2.522-1.98 3.414-1.98 2.756 0 6.068 2.989 6.068 5.475 0 3.36.999 5.525 2.548 5.525 1.995 0 2.374-1.083 3.563-10.172.6-4.58 1.929-10.261 2.953-12.624l1.864-4.296 13.786.668c15.183.735 20.219-.055 26.536-4.165 2.063-1.342 3.737-3.22 3.722-4.175-.017-1.024-2.357-3.146-5.706-5.174-3.122-1.891-7.313-4.916-9.312-6.722-4.088-3.694-13.323-8.315-16.645-8.33-1.205-.006-2.469-.46-2.809-1.01-.745-1.205-10.706-1.344-12.05-.169m89.776 65.706c-3.472.745-8.943 2.969-12.253 4.979-21.326 12.955-21.668 46.062-.623 60.207 6.031 4.054 10.202 5.319 19.65 5.962 6.17.42 8.55.115 13.419-1.722 13.435-5.069 24.782-21.578 23.044-33.529a717 717 0 0 1-.972-6.934c-.971-7.281-3.009-11.989-7.1-16.401-1.315-1.418-2.391-2.916-2.391-3.329 0-.412-2.363-2.297-5.25-4.189-8.249-5.403-17.746-7.144-27.524-5.044M200 75.93c-4.333 1.751-4.511 1.99-4.804 6.435-.253 3.83.123 5.045 2.204 7.126 1.38 1.38 3.443 2.509 4.584 2.509 2.06 0 2.059.023-.186 3.059-3.414 4.618-2.957 10.516 1.095 14.136 3.278 2.929 8.484 3.744 11.977 1.875 1.496-.801 1.752-.423 1.841 2.722.078 2.749.873 4.341 3.212 6.431 3.931 3.512 7.006 3.52 10.28.027 10.503-11.207 9.541-29.466-2.075-39.409-7.7-6.59-19.063-8.574-28.128-4.911M74.717 88.287C51.546 117.036 46.359 136.534 53.777 167c3.792 15.569 6.943 38.242 7.823 56.279.784 16.049-.06 14.824 15.09 21.923 7.463 3.497 26.475 9.798 29.565 9.798.634 0 .81-4.098.484-11.25-.588-12.882-2.396-18.918-12.632-42.164-3.37-7.653-6.822-16.203-7.672-19-1.468-4.832-4.549-24.735-3.932-25.4.16-.173 2.25 1.114 4.644 2.858 2.394 1.745 6.562 4.586 9.262 6.314 4.764 3.049 5.005 3.439 8.112 13.142 1.762 5.5 6.383 17.875 10.269 27.5s7.604 20.597 8.263 24.383c1.113 6.392.715 19.451-.705 23.152-.428 1.117.28 1.465 2.978 1.465 4.181 0 4.076.241 6.158-14 1.817-12.431 5.322-34.346 6.121-38.274.529-2.598.162-2.958-5.77-5.661-6.479-2.951-14.838-8.487-14.831-9.821.002-.409 2.036-1.58 4.521-2.602 10.791-4.438 22.819-17.196 29.593-31.39 2.955-6.191 2.997-6.468 1.261-8.386-.987-1.091-5.051-4.013-9.03-6.493-6.201-3.864-7.487-5.166-8.989-9.102-2.482-6.497-10.755-18.707-14.729-21.739-3.704-2.825-12.633-6.673-22.631-9.754-9.128-2.813-13.475-5.227-16.705-9.276-1.537-1.926-3.02-3.485-3.295-3.465s-1.303 1.033-2.283 2.25"/></svg>